<mxfile host="app.diagrams.net" agent="Mozilla/5.0 (Windows NT 10.0; Win64; x64) AppleWebKit/537.36 (KHTML, like Gecko) Chrome/132.0.0.0 Safari/537.36" version="26.0.6" pages="2">
  <diagram id="C5RBs43oDa-KdzZeNtuy" name="Page-1">
    <mxGraphModel dx="828" dy="514" grid="1" gridSize="10" guides="1" tooltips="1" connect="1" arrows="1" fold="1" page="1" pageScale="1" pageWidth="827" pageHeight="1169" math="0" shadow="0">
      <root>
        <mxCell id="WIyWlLk6GJQsqaUBKTNV-0" />
        <mxCell id="WIyWlLk6GJQsqaUBKTNV-1" parent="WIyWlLk6GJQsqaUBKTNV-0" />
        <mxCell id="cut1Jt51oyA8zrV5yMS1-0" value="Projeto Pizzaria" style="rounded=0;whiteSpace=wrap;html=1;" vertex="1" parent="WIyWlLk6GJQsqaUBKTNV-1">
          <mxGeometry x="179" y="10" width="470" height="60" as="geometry" />
        </mxCell>
        <mxCell id="cut1Jt51oyA8zrV5yMS1-9" value="Classe cliente" style="swimlane;fontStyle=1;align=center;verticalAlign=top;childLayout=stackLayout;horizontal=1;startSize=30;horizontalStack=0;resizeParent=1;resizeParentMax=0;resizeLast=0;collapsible=1;marginBottom=0;whiteSpace=wrap;html=1;" vertex="1" parent="WIyWlLk6GJQsqaUBKTNV-1">
          <mxGeometry x="180" y="90" width="160" height="170" as="geometry" />
        </mxCell>
        <mxCell id="cut1Jt51oyA8zrV5yMS1-10" value="+ long: id&lt;div&gt;+ String: Nome&lt;/div&gt;&lt;div&gt;+ String: email&lt;/div&gt;" style="text;strokeColor=none;fillColor=none;align=left;verticalAlign=top;spacingLeft=4;spacingRight=4;overflow=hidden;rotatable=0;points=[[0,0.5],[1,0.5]];portConstraint=eastwest;whiteSpace=wrap;html=1;" vertex="1" parent="cut1Jt51oyA8zrV5yMS1-9">
          <mxGeometry y="30" width="160" height="60" as="geometry" />
        </mxCell>
        <mxCell id="cut1Jt51oyA8zrV5yMS1-11" value="" style="line;strokeWidth=1;fillColor=none;align=left;verticalAlign=middle;spacingTop=-1;spacingLeft=3;spacingRight=3;rotatable=0;labelPosition=right;points=[];portConstraint=eastwest;strokeColor=inherit;" vertex="1" parent="cut1Jt51oyA8zrV5yMS1-9">
          <mxGeometry y="90" width="160" height="8" as="geometry" />
        </mxCell>
        <mxCell id="cut1Jt51oyA8zrV5yMS1-12" value="&lt;span style=&quot;background-color: transparent; color: light-dark(rgb(0, 0, 0), rgb(255, 255, 255));&quot;&gt;+metod: public Cliente(String nome, String email) { this.nome = nome; this.email = email; }&lt;/span&gt;" style="text;strokeColor=none;fillColor=none;align=left;verticalAlign=top;spacingLeft=4;spacingRight=4;overflow=hidden;rotatable=0;points=[[0,0.5],[1,0.5]];portConstraint=eastwest;whiteSpace=wrap;html=1;" vertex="1" parent="cut1Jt51oyA8zrV5yMS1-9">
          <mxGeometry y="98" width="160" height="72" as="geometry" />
        </mxCell>
        <mxCell id="cut1Jt51oyA8zrV5yMS1-18" value="Classe pedido" style="swimlane;fontStyle=1;align=center;verticalAlign=top;childLayout=stackLayout;horizontal=1;startSize=30;horizontalStack=0;resizeParent=1;resizeParentMax=0;resizeLast=0;collapsible=1;marginBottom=0;whiteSpace=wrap;html=1;" vertex="1" parent="WIyWlLk6GJQsqaUBKTNV-1">
          <mxGeometry x="350" y="90" width="160" height="170" as="geometry" />
        </mxCell>
        <mxCell id="cut1Jt51oyA8zrV5yMS1-19" value="+ long: id&lt;div&gt;+ String: Nome&lt;/div&gt;&lt;div&gt;+ long: ClientID&lt;/div&gt;" style="text;strokeColor=none;fillColor=none;align=left;verticalAlign=top;spacingLeft=4;spacingRight=4;overflow=hidden;rotatable=0;points=[[0,0.5],[1,0.5]];portConstraint=eastwest;whiteSpace=wrap;html=1;" vertex="1" parent="cut1Jt51oyA8zrV5yMS1-18">
          <mxGeometry y="30" width="160" height="60" as="geometry" />
        </mxCell>
        <mxCell id="cut1Jt51oyA8zrV5yMS1-20" value="" style="line;strokeWidth=1;fillColor=none;align=left;verticalAlign=middle;spacingTop=-1;spacingLeft=3;spacingRight=3;rotatable=0;labelPosition=right;points=[];portConstraint=eastwest;strokeColor=inherit;" vertex="1" parent="cut1Jt51oyA8zrV5yMS1-18">
          <mxGeometry y="90" width="160" height="8" as="geometry" />
        </mxCell>
        <mxCell id="cut1Jt51oyA8zrV5yMS1-21" value="&lt;span style=&quot;background-color: transparent; color: light-dark(rgb(0, 0, 0), rgb(255, 255, 255));&quot;&gt;+metod:&amp;nbsp;&lt;/span&gt;public Pedido(Long clienteId, String descricao) { this.clienteId = clienteId; this.descricao = descricao; }" style="text;strokeColor=none;fillColor=none;align=left;verticalAlign=top;spacingLeft=4;spacingRight=4;overflow=hidden;rotatable=0;points=[[0,0.5],[1,0.5]];portConstraint=eastwest;whiteSpace=wrap;html=1;" vertex="1" parent="cut1Jt51oyA8zrV5yMS1-18">
          <mxGeometry y="98" width="160" height="72" as="geometry" />
        </mxCell>
        <mxCell id="cut1Jt51oyA8zrV5yMS1-23" value="" style="endArrow=classic;html=1;rounded=0;fontSize=12;startSize=8;endSize=8;curved=1;entryX=-0.026;entryY=0.742;entryDx=0;entryDy=0;entryPerimeter=0;" edge="1" parent="WIyWlLk6GJQsqaUBKTNV-1" target="cut1Jt51oyA8zrV5yMS1-19">
          <mxGeometry width="50" height="50" relative="1" as="geometry">
            <mxPoint x="330" y="130" as="sourcePoint" />
            <mxPoint x="520" y="140" as="targetPoint" />
          </mxGeometry>
        </mxCell>
      </root>
    </mxGraphModel>
  </diagram>
  <diagram id="lMqOeXR_u5xcnEGTFLLx" name="Classe Pagamento">
    <mxGraphModel dx="1745" dy="835" grid="0" gridSize="10" guides="1" tooltips="1" connect="1" arrows="1" fold="1" page="0" pageScale="1" pageWidth="827" pageHeight="1169" math="0" shadow="0">
      <root>
        <mxCell id="0" />
        <mxCell id="1" parent="0" />
        <mxCell id="A3VHlCRgV-RiuJnkpyZw-27" value="Classe Pagamentos" style="swimlane;fontStyle=0;childLayout=stackLayout;horizontal=1;startSize=26;fillColor=none;horizontalStack=0;resizeParent=1;resizeParentMax=0;resizeLast=0;collapsible=1;marginBottom=0;whiteSpace=wrap;html=1;" vertex="1" parent="1">
          <mxGeometry x="220" y="263" width="302" height="177" as="geometry" />
        </mxCell>
        <mxCell id="A3VHlCRgV-RiuJnkpyZw-29" value="+ double: totaldopedido&lt;div&gt;+ long: id&lt;/div&gt;&lt;div&gt;+ long:&amp;nbsp;&lt;span style=&quot;color: rgb(60, 64, 67); font-family: Roboto, Arial, sans-serif; font-size: 14px; letter-spacing: 0.2px; background-color: transparent;&quot;&gt;pedidoId&lt;/span&gt;&lt;span style=&quot;color: rgb(60, 64, 67); font-family: Roboto, Arial, sans-serif; font-size: 14px; letter-spacing: 0.2px; background-color: transparent;&quot;&gt;&amp;nbsp;&lt;/span&gt;&lt;/div&gt;&lt;div&gt;&lt;font face=&quot;Roboto, Arial, sans-serif&quot; color=&quot;#3c4043&quot;&gt;&lt;span style=&quot;font-size: 14px; letter-spacing: 0.2px;&quot;&gt;+ double:&amp;nbsp;&lt;/span&gt;&lt;/font&gt;&lt;span style=&quot;background-color: transparent; color: light-dark(rgb(0, 0, 0), rgb(255, 255, 255));&quot;&gt;formaPagamento&lt;/span&gt;&lt;/div&gt;&lt;div&gt;&lt;span style=&quot;color: rgb(60, 64, 67); font-family: Roboto, Arial, sans-serif; font-size: 14px; letter-spacing: 0.2px;&quot;&gt;+ double: valorPago&lt;/span&gt;&lt;span style=&quot;background-color: transparent; color: light-dark(rgb(0, 0, 0), rgb(255, 255, 255));&quot;&gt;&lt;/span&gt;&lt;/div&gt;&lt;div&gt;&lt;span style=&quot;color: rgb(60, 64, 67); font-family: Roboto, Arial, sans-serif; font-size: 14px; letter-spacing: 0.2px;&quot;&gt;+ data e hora: dataHoraPagamento&amp;nbsp;&lt;/span&gt;&lt;span style=&quot;color: rgb(60, 64, 67); font-family: Roboto, Arial, sans-serif; font-size: 14px; letter-spacing: 0.2px;&quot;&gt;&lt;/span&gt;&lt;/div&gt;&lt;div&gt;&lt;span style=&quot;color: rgb(60, 64, 67); font-family: Roboto, Arial, sans-serif; font-size: 14px; letter-spacing: 0.2px; background-color: transparent;&quot;&gt;&lt;br&gt;&lt;/span&gt;&lt;/div&gt;" style="text;strokeColor=none;fillColor=none;align=left;verticalAlign=top;spacingLeft=4;spacingRight=4;overflow=hidden;rotatable=0;points=[[0,0.5],[1,0.5]];portConstraint=eastwest;whiteSpace=wrap;html=1;" vertex="1" parent="A3VHlCRgV-RiuJnkpyZw-27">
          <mxGeometry y="26" width="302" height="151" as="geometry" />
        </mxCell>
        <mxCell id="A3VHlCRgV-RiuJnkpyZw-37" style="edgeStyle=none;curved=1;rounded=0;orthogonalLoop=1;jettySize=auto;html=1;exitX=0.5;exitY=1;exitDx=0;exitDy=0;fontSize=12;startSize=8;endSize=8;" edge="1" parent="1" source="A3VHlCRgV-RiuJnkpyZw-35" target="A3VHlCRgV-RiuJnkpyZw-38">
          <mxGeometry relative="1" as="geometry">
            <mxPoint x="87.17647058823536" y="489.0065558938419" as="targetPoint" />
          </mxGeometry>
        </mxCell>
        <mxCell id="A3VHlCRgV-RiuJnkpyZw-35" value="Validação do pagamento" style="rounded=0;whiteSpace=wrap;html=1;" vertex="1" parent="1">
          <mxGeometry x="27" y="375" width="120" height="33" as="geometry" />
        </mxCell>
        <mxCell id="A3VHlCRgV-RiuJnkpyZw-34" style="edgeStyle=none;curved=1;rounded=0;orthogonalLoop=1;jettySize=auto;html=1;exitX=0;exitY=0.5;exitDx=0;exitDy=0;fontSize=12;startSize=8;endSize=8;" edge="1" parent="1" source="A3VHlCRgV-RiuJnkpyZw-29" target="A3VHlCRgV-RiuJnkpyZw-35">
          <mxGeometry relative="1" as="geometry">
            <mxPoint x="156.01306870404414" y="390.7058823529412" as="targetPoint" />
          </mxGeometry>
        </mxCell>
        <mxCell id="A3VHlCRgV-RiuJnkpyZw-36" style="edgeStyle=none;curved=1;rounded=0;orthogonalLoop=1;jettySize=auto;html=1;exitX=0;exitY=0.5;exitDx=0;exitDy=0;fontSize=12;startSize=8;endSize=8;" edge="1" parent="1" target="A3VHlCRgV-RiuJnkpyZw-35">
          <mxGeometry relative="1" as="geometry">
            <mxPoint x="220" y="301.5" as="sourcePoint" />
          </mxGeometry>
        </mxCell>
        <mxCell id="A3VHlCRgV-RiuJnkpyZw-38" value="Text" style="text;html=1;align=center;verticalAlign=middle;whiteSpace=wrap;rounded=0;fontSize=16;" vertex="1" parent="1">
          <mxGeometry x="54.99647058823536" y="478.9965558938419" width="60" height="30" as="geometry" />
        </mxCell>
        <mxCell id="A3VHlCRgV-RiuJnkpyZw-39" value="enquanto totaldopedido &amp;lt;= que valor pago enviar pizza" style="whiteSpace=wrap;html=1;" vertex="1" parent="1">
          <mxGeometry x="-9" y="466" width="192" height="102" as="geometry" />
        </mxCell>
        <mxCell id="A3VHlCRgV-RiuJnkpyZw-40" value="Em desenvolvimento" style="rounded=0;whiteSpace=wrap;html=1;" vertex="1" parent="1">
          <mxGeometry x="-100" y="102" width="905" height="108" as="geometry" />
        </mxCell>
      </root>
    </mxGraphModel>
  </diagram>
</mxfile>
